<svg width="32" height="32" viewBox="0 0 32 32" fill="none" xmlns="http://www.w3.org/2000/svg">
<path d="M5.73047 15.677C5.73047 13.6465 5.73047 12.6313 6.14091 11.7389C6.55135 10.8465 7.32217 10.1858 8.8638 8.86444L10.3592 7.58263C13.1457 5.19421 14.539 4 16.1986 4C17.8582 4 19.2514 5.19421 22.0379 7.58263L23.5334 8.86444C25.075 10.1858 25.8458 10.8465 26.2563 11.7389C26.6667 12.6313 26.6667 13.6465 26.6667 15.677V22.0183C26.6667 24.8381 26.6667 26.248 25.7907 27.124C24.9147 28 23.5048 28 20.6849 28H11.7122C8.89241 28 7.48249 28 6.60648 27.124C5.73047 26.248 5.73047 24.8381 5.73047 22.0183V15.677Z" stroke="#8C8C8C" stroke-width="1.68238"/>
<path d="M19.9372 28.0001V20.149C19.9372 19.5296 19.435 19.0275 18.8156 19.0275H13.5815C12.9621 19.0275 12.46 19.5296 12.46 20.149V28.0001" stroke="#8C8C8C" stroke-width="1.68238" stroke-linecap="round" stroke-linejoin="round"/>
</svg>
